<?xml version="1.0" encoding="UTF-8" standalone="no"?>
<!-- Created with Inkscape (http://www.inkscape.org/) -->

<svg
   width="210mm"
   height="297mm"
   viewBox="0 0 210 297"
   version="1.1"
   id="svg1"
   xml:space="preserve"
   sodipodi:docname="maps.svg"
   inkscape:version="1.4.3 (0d15f75, 2025-12-25)"
   xmlns:inkscape="http://www.inkscape.org/namespaces/inkscape"
   xmlns:sodipodi="http://sodipodi.sourceforge.net/DTD/sodipodi-0.dtd"
   xmlns="http://www.w3.org/2000/svg"
   xmlns:svg="http://www.w3.org/2000/svg"><sodipodi:namedview
     id="namedview1"
     pagecolor="#ffffff"
     bordercolor="#000000"
     borderopacity="0.25"
     inkscape:showpageshadow="2"
     inkscape:pageopacity="0.0"
     inkscape:pagecheckerboard="0"
     inkscape:deskcolor="#d1d1d1"
     inkscape:document-units="mm"
     inkscape:zoom="2.3270734"
     inkscape:cx="435.52558"
     inkscape:cy="374.28987"
     inkscape:window-width="2560"
     inkscape:window-height="1381"
     inkscape:window-x="1920"
     inkscape:window-y="30"
     inkscape:window-maximized="0"
     inkscape:current-layer="layer1" /><defs
     id="defs1" /><g
     inkscape:groupmode="layer"
     id="layer2"
     inkscape:label="Layer 2"
     style="opacity:1"><g
       id="g1522"
       transform="translate(-59.968992,19.333374)"
       inkscape:export-filename="map-tri.svg"
       inkscape:export-xdpi="96"
       inkscape:export-ydpi="96"><g
         id="g1521"><path
           id="path1359"
           style="fill:#2ca02c;fill-opacity:1;stroke:#214700;stroke-width:0.512056;stroke-linecap:round;stroke-dasharray:none;stroke-opacity:1"
           d="m 160.5135,29.067961 -1.41956,2.446879 0.0103,0.01809 -2.74919,-0.0062 -1.41955,2.447396 1.40818,2.45153 -1.06143,1.829862 -2.74712,-0.0062 -0.005,0.0093 -1.40921,-2.45308 1.41386,-2.438095 -1.40921,-2.45308 -2.82929,-0.0057 -1.41955,2.446879 -2.82877,-0.0062 -1.41955,2.447396 1.40922,2.45308 h 0.0207 l -1.37976,2.377632 1.40973,2.453081 2.82722,0.0062 1.39785,2.432926 h 0.0346 l -1.4149,2.438611 0.005,0.0093 -2.82877,-0.0062 -1.40457,-2.443779 -2.82876,-0.0062 -1.41956,2.447396 1.4087,2.45308 -1.41955,2.446879 1.40974,2.45308 2.82876,0.0057 0.0103,-0.01757 1.36942,2.383834 2.82929,0.0057 1.41903,-2.445329 2.23501,0.0047 1.04696,1.822111 h 0.0103 l -1.41955,2.446879 -2.81844,-0.0057 -1.42006,2.446879 1.40973,2.45308 2.82877,0.0062 1.40921,2.453081 2.82929,0.0057 1.41955,-2.446879 -0.0103,-0.01809 2.74919,0.0062 1.41955,-2.447396 -1.40818,-2.451529 1.06143,-1.829863 2.74764,0.0062 0.005,-0.0093 1.40921,2.453081 -1.41438,2.438094 1.40922,2.45308 2.82928,0.0057 1.41955,-2.446879 2.82929,0.0062 1.41955,-2.447396 -1.40922,-2.453081 h -0.0212 l 1.38028,-2.377632 -1.40973,-2.45308 -2.82722,-0.0062 -1.39785,-2.432926 h -0.0351 l 1.4149,-2.438611 -0.005,-0.0093 2.82877,0.0062 1.40456,2.443778 2.82929,0.0062 1.41955,-2.447396 -1.40922,-2.45308 1.41955,-2.446879 -1.40921,-2.45308 -2.82929,-0.0057 -0.0103,0.01757 -1.36891,-2.383833 -2.82929,-0.0057 -1.41903,2.445329 -2.23552,-0.0047 -1.04697,-1.822111 h -0.0103 l 1.41955,-2.446879 2.81843,0.0057 1.42007,-2.446879 -1.40974,-2.45308 -2.82876,-0.0062 -1.40922,-2.45308 z" /><path
           id="path1511"
           style="fill:#2ca02c;fill-opacity:1;stroke:#214700;stroke-width:0.512056;stroke-linecap:round;stroke-dasharray:none;stroke-opacity:1"
           d="m 127.01672,90.147242 2.82883,0.006 0.0105,-0.0179 1.36923,2.38398 2.82928,0.006 1.41896,-2.44531 2.11542,0.004 1.36819,2.38218 0.0108,-7e-4 -1.41971,2.44702 -2.81838,-0.005 -1.4198,2.44696 1.4097,2.453085 2.82884,0.006 1.40902,2.452893 2.82928,0.006 1.41971,-2.447023 -0.0103,-0.0179 2.74898,0.006 1.41984,-2.447235 -1.40825,-2.451539 1.40815,-2.426991 -0.0173,-0.03 2.81935,0.006 0.005,-0.009 1.40919,2.45279 -1.41453,2.43804 1.40902,2.452865 2.82928,0.006 1.42045,-2.446294 2.82884,0.006 1.41985,-2.44724 -1.40919,-2.45278 -0.0204,-1.11e-4 1.37978,-2.377849 -1.40945,-2.453232 -2.82723,-0.006 -1.11317,-1.93808 1.05419,-1.81792 -0.005,-0.009 2.82884,0.006 1.40402,2.443839 2.82909,0.006 1.41985,-2.447239 -1.40919,-2.45279 1.41971,-2.44701 -1.40945,-2.45324 -2.82884,-0.006 -0.0105,0.0179 -1.36939,-2.38386 -2.82929,-0.006 -1.41879,2.4454 -2.11541,-0.004 -1.36863,-2.38253 -0.0103,-1.7e-4 1.41972,-2.44702 2.81864,0.006 1.41972,-2.447017 -1.40945,-2.453232 -2.82883,-0.0059 -1.40945,-2.453236 -2.82929,-0.0057 -1.4198,2.446971 0.0106,0.01836 -2.74923,-0.0065 -1.41958,2.447387 1.40841,2.451447 -1.40806,2.42703 0.0176,0.0304 -2.81935,-0.006 -0.005,0.009 -1.40918,-2.45279 1.41409,-2.438276 -1.40945,-2.453236 -2.82928,-0.0057 -1.41981,2.446971 -2.82883,-0.0059 -1.4198,2.446961 1.40971,2.45309 0.0204,10e-5 -1.38,2.37742 1.40971,2.45309 2.82723,0.006 1.11369,1.93837 -1.05455,1.81773 0.005,0.009 -2.82883,-0.006 -1.40428,-2.44368 -2.8291,-0.006 -1.41958,2.4474 1.40901,2.45287 -1.41981,2.44697 z" /><path
           id="path1517"
           style="fill:#2ca02c;fill-opacity:1;stroke:#214700;stroke-width:0.512056;stroke-linecap:round;stroke-dasharray:none;stroke-opacity:1"
           d="m 178.6773,95.522544 1.41961,-2.44684 -0.0102,-0.018 2.7492,0.006 1.41984,-2.44723 -1.40822,-2.45151 1.06118,-1.83002 2.74712,0.006 0.005,-0.01 1.40932,2.45302 -1.41352,2.4383 1.40923,2.45306 2.82929,0.006 1.41962,-2.44686 2.82877,0.006 1.41984,-2.44723 -1.40933,-2.45301 -0.0207,-3e-5 1.37969,-2.37769 -1.40946,-2.45323 -2.82722,-0.006 -1.39776,-2.43299 -0.0346,-1e-5 1.41487,-2.43863 -0.005,-0.009 2.82877,0.006 1.40414,2.44403 2.82876,0.006 1.41984,-2.44723 -1.40834,-2.4533 1.41961,-2.44684 -1.40944,-2.45324 -2.82876,-0.006 -0.0103,0.0176 -1.36939,-2.38385 -2.82928,-0.006 -1.41881,2.44545 -2.23501,-0.005 -1.04727,-1.82192 -0.0103,-1.7e-4 1.41962,-2.44685 2.81844,0.006 1.41974,-2.44707 -1.40945,-2.45324 -2.82877,-0.006 -1.40932,-2.453014 -2.82929,-0.006 -1.41962,2.446845 0.0102,0.0181 -2.74918,-0.006 -1.41984,2.44724 1.40838,2.45141 -1.06116,1.83 -2.74765,-0.006 -0.005,0.009 -1.40932,-2.45302 1.41452,-2.43801 -1.40932,-2.453026 -2.82929,-0.006 -1.41953,2.446894 -2.82929,-0.006 -1.41958,2.44739 1.40924,2.45306 h 0.0212 l -1.38024,2.37765 1.40971,2.45308 2.82723,0.006 1.39784,2.43293 0.0351,-4e-5 -1.41487,2.43863 0.005,0.009 -2.82877,-0.006 -1.40457,-2.44378 -2.82929,-0.006 -1.41958,2.44739 1.40923,2.45307 -1.41961,2.44684 1.40924,2.45307 2.82929,0.006 0.0103,-0.0176 1.3689,2.38383 2.82929,0.006 1.41882,-2.44546 2.23552,0.005 1.04692,1.82213 0.0103,1.7e-4 -1.41961,2.44684 -2.81843,-0.006 -1.41975,2.44707 1.40972,2.45309 2.82876,0.006 1.40923,2.45308 z" /></g><g
         id="g1520"
         style="stroke:#1a4119;stroke-opacity:1"><path
           id="path1344"
           style="fill:#7a4d30;fill-opacity:1;stroke:#1a4119;stroke-width:0.512056;stroke-linecap:round;stroke-dasharray:none;stroke-opacity:1"
           d="m 143.65426,19.36007 -1.41989,2.447294 1.40954,2.452838 2.82906,0.0059 0.003,-0.0059 1.39697,2.431402 -1.40732,2.425119 1.40954,2.453207 2.82906,0.0059 0.0196,-0.034 1.38219,2.405163 -1.40695,2.425489 1.40954,2.453207 2.82906,0.0059 1.41989,-2.447294 -1.40363,-2.443229 1.38182,-2.38151 0.006,0.01035 2.82943,0.0059 1.41952,-2.446925 -1.40363,-2.443228 1.40733,-2.425489 2.81169,0.0059 1.41989,-2.446924 -1.40954,-2.453207 -2.82906,-0.0059 -1.41989,2.447294 -2.81169,-0.0059 -0.003,0.0045 -1.40178,-2.439902 -2.82906,-0.0059 -1.41989,2.447293 -2.81354,-0.0059 -0.003,0.0056 -1.40252,-2.44101 z" /><path
           id="path1500"
           style="fill:#7a4d30;fill-opacity:1;stroke:#1a4119;stroke-width:0.512056;stroke-linecap:round;stroke-dasharray:none;stroke-opacity:1"
           d="m 175.05956,21.178654 -2.82936,-0.006 -1.41945,2.447117 1.40942,2.452987 0.007,-5e-6 -1.40717,2.425517 -2.80387,-0.0062 -1.41977,2.447302 1.40942,2.452988 0.0392,-3.5e-5 -1.39184,2.399594 -2.80401,-0.0057 -1.41977,2.447301 1.40942,2.452988 2.82936,0.006 1.41409,-2.437191 2.75336,0.0059 -0.006,0.0102 1.4096,2.453309 2.82886,0.0059 1.41409,-2.43719 2.80419,0.006 1.40074,2.437944 2.82904,0.0062 1.41977,-2.447301 -1.40942,-2.452988 -2.82936,-0.006 -1.40074,-2.437943 -0.005,-1.75e-4 1.41213,-2.43393 -1.40942,-2.452987 -2.82937,-0.006 -1.40165,-2.439545 -0.007,-1.44e-4 1.41271,-2.435122 z" /><path
           id="path1502"
           style="fill:#7a4d30;fill-opacity:1;stroke:#1a4119;stroke-width:0.512056;stroke-linecap:round;stroke-dasharray:none;stroke-opacity:1"
           d="m 189.14594,50.401579 -1.40947,-2.453306 -2.82899,-0.0057 -1.41964,2.447088 0.003,0.0059 -2.80414,-0.0059 -1.39656,-2.431337 -2.82931,-0.0059 -1.41964,2.447088 0.0196,0.03397 -2.77402,-0.0056 -1.39706,-2.431201 -2.82931,-0.0059 -1.41964,2.447088 1.40947,2.453308 2.81771,0.006 1.37154,2.387447 -0.0119,-1.52e-4 -1.41982,2.44741 1.40934,2.452801 2.81771,0.006 1.39687,2.431523 -1.41095,2.432043 1.40915,2.453123 2.82931,0.0059 1.41964,-2.447088 -1.40947,-2.453307 1.41095,-2.432043 -0.002,-0.0047 2.81391,0.006 1.41964,-2.447087 -1.40948,-2.453306 1.41188,-2.433645 -0.003,-0.0057 2.81524,0.0059 z" /><path
           id="path1506"
           style="fill:#7a4d30;fill-opacity:1;stroke:#1a4119;stroke-width:0.512056;stroke-linecap:round;stroke-dasharray:none;stroke-opacity:1"
           d="m 139.63931,74.165925 2.82936,0.006 1.41945,-2.447117 -1.40942,-2.452988 -0.007,6e-6 1.40717,-2.425517 2.80388,0.0062 1.41977,-2.447302 -1.40942,-2.452988 -0.0392,3.5e-5 1.39183,-2.399594 2.80402,0.0057 1.41976,-2.4473 -1.40942,-2.452988 -2.82936,-0.006 -1.41408,2.437191 -2.75336,-0.0059 0.006,-0.0102 -1.40961,-2.453309 -2.82886,-0.0059 -1.41408,2.43719 -2.8042,-0.006 -1.40073,-2.437944 -2.82905,-0.0062 -1.41976,2.447302 1.40942,2.452988 2.82936,0.006 1.40073,2.437943 0.005,1.75e-4 -1.41212,2.43393 1.40942,2.452987 2.82936,0.006 1.40166,2.439546 0.007,1.44e-4 -1.41272,2.435122 z" /><path
           id="path1508"
           style="fill:#7a4d30;fill-opacity:1;stroke:#1a4119;stroke-width:0.512056;stroke-linecap:round;stroke-dasharray:none;stroke-opacity:1"
           d="m 125.79117,45.543406 1.40947,2.453306 2.82899,0.0057 1.41964,-2.447088 -0.003,-0.0059 2.80415,0.0059 1.39655,2.431338 2.82931,0.0059 1.41964,-2.447088 -0.0197,-0.03397 2.77403,0.0056 1.39706,2.431201 2.82931,0.0059 1.41964,-2.447088 -1.40948,-2.453307 -2.81771,-0.006 -1.37154,-2.387447 0.0119,1.52e-4 1.41983,-2.447409 -1.40934,-2.452802 -2.81771,-0.006 -1.39688,-2.431523 1.41096,-2.432043 -1.40916,-2.453123 -2.82931,-0.0059 -1.41964,2.447088 1.40948,2.453307 -1.41096,2.432043 0.002,0.0047 -2.8139,-0.006 -1.41964,2.447087 1.40947,2.453306 -1.41188,2.433645 0.003,0.0057 -2.81523,-0.0059 z" /><path
           id="path1510"
           style="fill:#7a4d30;fill-opacity:1;stroke:#1a4119;stroke-width:0.512056;stroke-linecap:round;stroke-dasharray:none;stroke-opacity:1"
           d="m 127.03906,109.60171 2.82936,0.006 1.41969,-2.44698 -1.40942,-2.45299 -0.007,3.7e-4 1.40718,-2.42551 2.80387,0.006 1.41985,-2.447263 -1.40942,-2.452985 -0.0392,-1e-5 1.39187,-2.39958 2.804,0.006 1.41985,-2.44725 -1.40942,-2.45299 -2.82936,-0.006 -1.41405,2.43722 -2.75336,-0.006 0.006,-0.0104 -1.40961,-2.4533 -2.82886,-0.006 -1.41405,2.43721 -2.8042,-0.006 -1.40073,-2.43795 -2.82905,-0.006 -1.41976,2.44731 1.40942,2.45299 2.82936,0.006 1.40074,2.43794 0.005,3.3e-4 -1.41215,2.433905 1.40942,2.452993 2.82936,0.006 1.40166,2.43955 0.006,-1.6e-4 -1.41272,2.43512 z" /><path
           id="path1512"
           style="fill:#7a4d30;fill-opacity:1;stroke:#1a4119;stroke-width:0.512056;stroke-linecap:round;stroke-dasharray:none;stroke-opacity:1"
           d="m 112.91135,81.49464 1.40948,2.4533 2.82899,0.006 1.41964,-2.44709 -0.003,-0.007 2.80414,0.006 1.39657,2.43132 2.82931,0.006 1.41964,-2.44709 -0.0196,-0.034 2.77403,0.006 1.39706,2.4312 2.82931,0.006 1.41964,-2.44709 -1.40948,-2.45329 -2.81772,-0.006 -1.37156,-2.38743 0.0119,-4e-5 1.41982,-2.44741 -1.40932,-2.45282 -2.81771,-0.006 -1.3969,-2.431495 1.41096,-2.432045 -1.40915,-2.453121 -2.82931,-0.0059 -1.41964,2.447088 1.40948,2.453301 -1.41096,2.432042 0.002,0.005 -2.8139,-0.006 -1.41964,2.44709 1.40948,2.4533 -1.41187,2.43364 0.003,0.007 -2.81523,-0.006 z" /><path
           id="path1515"
           style="fill:#7a4d30;fill-opacity:1;stroke:#1a4119;stroke-width:0.512056;stroke-linecap:round;stroke-dasharray:none;stroke-opacity:1"
           d="m 158.64603,111.87985 1.41988,-2.44729 -1.4093,-2.45298 -2.82906,-0.006 -0.004,0.006 -1.39696,-2.43141 1.40714,-2.42523 -1.40947,-2.453265 -2.82906,-0.006 -0.0196,0.0341 -1.38216,-2.405175 1.4072,-2.42535 -1.40947,-2.45325 -2.82905,-0.006 -1.41988,2.44731 1.40366,2.44321 -1.38188,2.381475 -0.006,-0.0103 -2.82943,-0.006 -1.41962,2.446875 1.40366,2.44321 -1.4073,2.4255 -2.81169,-0.006 -1.41972,2.44702 1.40955,2.45321 2.82906,0.006 1.41988,-2.4473 2.81169,0.006 0.003,-0.004 1.40175,2.43991 2.82906,0.006 1.41988,-2.4473 2.81354,0.006 0.003,-0.005 1.40251,2.44101 z" /><path
           id="path1516"
           style="fill:#7a4d30;fill-opacity:1;stroke:#1a4119;stroke-width:0.512056;stroke-linecap:round;stroke-dasharray:none;stroke-opacity:1"
           d="m 195.5361,105.23058 1.41987,-2.4473 -1.4093,-2.45298 -2.82906,-0.006 -0.003,0.006 -1.39696,-2.431403 1.40713,-2.42522 -1.40947,-2.45326 -2.82906,-0.006 -0.0196,0.0339 -1.38216,-2.40518 1.4072,-2.42535 -1.40945,-2.45325 -2.82906,-0.006 -1.41989,2.44731 1.40367,2.44321 -1.38187,2.38148 -0.006,-0.0104 -2.82942,-0.006 -1.41963,2.44686 1.40366,2.44321 -1.4073,2.425503 -2.81169,-0.006 -1.41971,2.44702 1.40954,2.45321 2.82907,0.006 1.41988,-2.44731 2.81168,0.006 0.003,-0.004 1.40175,2.43991 2.82906,0.006 1.41988,-2.4473 2.81354,0.006 0.003,-0.005 1.40252,2.44101 z" /><path
           id="path1518"
           style="fill:#7a4d30;fill-opacity:1;stroke:#1a4119;stroke-width:0.512056;stroke-linecap:round;stroke-dasharray:none;stroke-opacity:1"
           d="m 164.03147,102.71232 2.82936,0.006 1.41969,-2.44697 -1.40942,-2.45298 -0.008,-9.1e-4 1.40727,-2.42545 2.80387,0.006 1.41985,-2.44725 -1.40942,-2.45299 -0.0393,-3e-5 1.39221,-2.39938 2.80402,0.006 1.41985,-2.44725 -1.40943,-2.45299 -2.82935,-0.006 -1.41405,2.43722 -2.75336,-0.006 0.006,-0.0103 -1.40961,-2.4533 -2.82887,-0.006 -1.41405,2.43721 -2.80419,-0.006 -1.40073,-2.43795 -2.82904,-0.006 -1.41977,2.44731 1.40942,2.45299 2.82936,0.006 1.40075,2.43794 0.005,7.7e-4 -1.41216,2.43392 1.40943,2.45299 2.82936,0.006 1.40166,2.43955 0.008,9e-4 -1.41281,2.43505 z" /><path
           id="path1519"
           style="fill:#7a4d30;fill-opacity:1;stroke:#1a4119;stroke-width:0.512056;stroke-linecap:round;stroke-dasharray:none;stroke-opacity:1"
           d="m 199.41311,49.824321 -2.82935,-0.006 -1.41969,2.446977 1.40933,2.453042 0.007,4.02e-4 -1.40727,2.425457 -2.80387,-0.006 -1.41985,2.447254 1.40933,2.453024 0.0393,-6e-5 -1.39221,2.39938 -2.80401,-0.006 -1.41985,2.44725 1.40934,2.45304 2.82935,0.006 1.41406,-2.43722 2.75337,0.006 -0.006,0.0103 1.40952,2.45335 2.82887,0.006 1.41405,-2.43721 2.80418,0.006 1.40065,2.43798 2.82905,0.006 1.41985,-2.44724 -1.40933,-2.45304 -2.82937,-0.006 -1.40064,-2.43799 -0.005,-7.7e-4 1.41215,-2.433917 -1.40934,-2.453042 -2.82935,-0.006 -1.40159,-2.439607 -0.007,-4.02e-4 1.41281,-2.435069 z" /><path
           id="path1520"
           style="fill:#7a4d30;fill-opacity:1;stroke:#1a4119;stroke-width:0.512056;stroke-linecap:round;stroke-dasharray:none;stroke-opacity:1"
           d="m 213.3993,79.047247 -1.40948,-2.4533 -2.82899,-0.006 -1.41973,2.44704 0.003,0.006 -2.80414,-0.006 -1.39674,-2.43123 -2.82932,-0.006 -1.41973,2.44703 0.0197,0.034 -2.77402,-0.006 -1.39682,-2.43134 -2.82931,-0.006 -1.41972,2.44703 1.40949,2.45331 2.81771,0.006 1.37149,2.38748 -0.0119,5e-5 -1.41991,2.44735 1.40924,2.45287 2.81771,0.006 1.39689,2.4315 -1.41104,2.432 1.40932,2.45302 2.82932,0.006 1.41973,-2.44704 -1.40949,-2.4533 1.41104,-2.43199 -0.002,-0.005 2.8139,0.006 1.41973,-2.44704 -1.40949,-2.4533 1.41197,-2.4336 -0.003,-0.005 2.81523,0.006 z" /><path
           id="path1504"
           style="fill:#7a4d30;fill-opacity:1;stroke:#1a4119;stroke-width:0.512056;stroke-linecap:round;stroke-dasharray:none;stroke-opacity:1"
           d="m 171.28271,76.584519 1.41989,-2.447294 -1.40954,-2.452838 -2.82906,-0.0059 -0.003,0.0059 -1.39698,-2.431402 1.40732,-2.425119 -1.40954,-2.453207 -2.82906,-0.0059 -0.0196,0.034 -1.38219,-2.405163 1.40695,-2.425489 -1.40954,-2.453207 -2.82906,-0.0059 -1.41989,2.447294 1.40363,2.443229 -1.38182,2.38151 -0.006,-0.01035 -2.82943,-0.0059 -1.41952,2.446925 1.40363,2.443228 -1.40733,2.425489 -2.81168,-0.0059 -1.41989,2.446924 1.40954,2.453207 2.82906,0.0059 1.41989,-2.447294 2.81168,0.0059 0.003,-0.0045 1.40179,2.439902 2.82906,0.0059 1.41988,-2.447293 2.81354,0.0059 0.003,-0.0056 1.40252,2.44101 z" /></g></g></g><g
     inkscape:label="Layer 1"
     inkscape:groupmode="layer"
     id="layer1"
     style="display:inline;opacity:1"
     transform="rotate(0.53906566,-143.28271,211.03021)"><g
       id="g1534"
       transform="rotate(8,8.1271456,-568.14962)"><circle
         style="fill:#2ad4ff;stroke:none;stroke-width:0.716;stroke-linecap:round;stroke-dasharray:none;stroke-opacity:1"
         id="path1316"
         cx="173.57544"
         cy="76.269485"
         r="1.3643746"
         transform="rotate(-9.5184918)" /><text
         xml:space="preserve"
         style="font-style:normal;font-variant:normal;font-weight:normal;font-stretch:normal;font-size:1.93601px;line-height:1.1;font-family:Krungthep;-inkscape-font-specification:'Krungthep, Normal';font-variant-ligatures:normal;font-variant-caps:normal;font-variant-numeric:oldstyle-nums;text-align:center;letter-spacing:-0.77392px;word-spacing:0.794247px;writing-mode:lr-tb;direction:ltr;text-anchor:middle;fill:#000000;stroke:none;stroke-width:0.392933;stroke-linecap:round;stroke-dasharray:none;stroke-opacity:1"
         x="173.62262"
         y="76.954033"
         id="text1316"
         transform="rotate(-9.5184918)"><tspan
           sodipodi:role="line"
           id="tspan1316"
           style="font-style:normal;font-variant:normal;font-weight:normal;font-stretch:normal;font-size:1.93601px;font-family:Krungthep;-inkscape-font-specification:'Krungthep, Normal';font-variant-ligatures:normal;font-variant-caps:normal;font-variant-numeric:oldstyle-nums;fill:#000000;stroke-width:0.392933"
           x="173.23566"
           y="76.954033">A</tspan></text></g><g
       id="g1525"
       transform="rotate(8,-4.9549444,-586.3549)"><circle
         style="fill:#d4aa00;stroke:none;stroke-width:0.716;stroke-linecap:round;stroke-dasharray:none;stroke-opacity:1"
         id="circle1316"
         cx="155.29546"
         cy="66.121956"
         r="1.3643746"
         transform="rotate(-9.5184918)" /><text
         xml:space="preserve"
         style="font-style:normal;font-variant:normal;font-weight:normal;font-stretch:normal;font-size:1.93601px;line-height:1.1;font-family:Krungthep;-inkscape-font-specification:'Krungthep, Normal';font-variant-ligatures:normal;font-variant-caps:normal;font-variant-numeric:oldstyle-nums;text-align:center;letter-spacing:-0.404813px;word-spacing:0.794247px;writing-mode:lr-tb;direction:ltr;text-anchor:middle;fill:#000000;stroke:none;stroke-width:0.392933;stroke-linecap:round;stroke-dasharray:none;stroke-opacity:1"
         x="155.22203"
         y="66.846703"
         id="text1317"
         transform="rotate(-9.5184918)"><tspan
           sodipodi:role="line"
           id="tspan1317"
           style="font-style:normal;font-variant:normal;font-weight:normal;font-stretch:normal;font-size:1.93601px;font-family:Krungthep;-inkscape-font-specification:'Krungthep, Normal';font-variant-ligatures:normal;font-variant-caps:normal;font-variant-numeric:oldstyle-nums;letter-spacing:-0.404813px;fill:#000000;stroke-width:0.392933"
           x="155.01962"
           y="66.846703">12</tspan></text></g><g
       id="g1524"
       transform="rotate(8,22.184876,-594.67574)"><circle
         style="fill:#d4aa00;stroke:none;stroke-width:0.716;stroke-linecap:round;stroke-dasharray:none;stroke-opacity:1"
         id="circle1317"
         cx="173.23436"
         cy="58.044003"
         r="1.3643746"
         transform="rotate(-9.5184918)" /><text
         xml:space="preserve"
         style="font-style:normal;font-variant:normal;font-weight:normal;font-stretch:normal;font-size:1.93601px;line-height:1.1;font-family:Krungthep;-inkscape-font-specification:'Krungthep, Normal';font-variant-ligatures:normal;font-variant-caps:normal;font-variant-numeric:oldstyle-nums;text-align:center;letter-spacing:-0.77392px;word-spacing:0.794247px;writing-mode:lr-tb;direction:ltr;text-anchor:middle;fill:#000000;stroke:none;stroke-width:0.392933;stroke-linecap:round;stroke-dasharray:none;stroke-opacity:1"
         x="173.28152"
         y="58.72855"
         id="text1318"
         transform="rotate(-9.5184918)"><tspan
           sodipodi:role="line"
           id="tspan1318"
           style="font-style:normal;font-variant:normal;font-weight:normal;font-stretch:normal;font-size:1.93601px;font-family:Krungthep;-inkscape-font-specification:'Krungthep, Normal';font-variant-ligatures:normal;font-variant-caps:normal;font-variant-numeric:oldstyle-nums;fill:#000000;stroke-width:0.392933"
           x="172.89456"
           y="58.72855">1</tspan></text></g><g
       id="g1523"
       transform="rotate(8,40.850336,-593.22034)"><circle
         style="fill:#d4aa00;stroke:none;stroke-width:0.716;stroke-linecap:round;stroke-dasharray:none;stroke-opacity:1"
         id="circle1318"
         cx="192.707"
         cy="66.150375"
         r="1.3643746"
         transform="rotate(-9.5184918)" /><text
         xml:space="preserve"
         style="font-style:normal;font-variant:normal;font-weight:normal;font-stretch:normal;font-size:1.93601px;line-height:1.1;font-family:Krungthep;-inkscape-font-specification:'Krungthep, Normal';font-variant-ligatures:normal;font-variant-caps:normal;font-variant-numeric:oldstyle-nums;text-align:center;letter-spacing:-0.77392px;word-spacing:0.794247px;writing-mode:lr-tb;direction:ltr;text-anchor:middle;fill:#000000;stroke:none;stroke-width:0.392933;stroke-linecap:round;stroke-dasharray:none;stroke-opacity:1"
         x="192.75417"
         y="66.834923"
         id="text1319"
         transform="rotate(-9.5184918)"><tspan
           sodipodi:role="line"
           id="tspan1332"
           x="192.3672"
           y="66.834923">2</tspan></text></g><g
       id="g1537"
       transform="rotate(8,34.832366,-561.22804)"><circle
         style="fill:#d4aa00;stroke:none;stroke-width:0.716;stroke-linecap:round;stroke-dasharray:none;stroke-opacity:1"
         id="circle1319"
         cx="192.40346"
         cy="87.534859"
         r="1.3643746"
         transform="rotate(-9.5184918)" /><text
         xml:space="preserve"
         style="font-style:normal;font-variant:normal;font-weight:normal;font-stretch:normal;font-size:1.93601px;line-height:1.1;font-family:Krungthep;-inkscape-font-specification:'Krungthep, Normal';font-variant-ligatures:normal;font-variant-caps:normal;font-variant-numeric:oldstyle-nums;text-align:center;letter-spacing:-0.77392px;word-spacing:0.794247px;writing-mode:lr-tb;direction:ltr;text-anchor:middle;fill:#000000;stroke:none;stroke-width:0.392933;stroke-linecap:round;stroke-dasharray:none;stroke-opacity:1"
         x="192.45062"
         y="88.219406"
         id="text1320"
         transform="rotate(-9.5184918)"><tspan
           sodipodi:role="line"
           id="tspan1333"
           x="192.06366"
           y="88.219406">3</tspan></text></g><g
       id="g1526"
       transform="rotate(8,63.212856,-553.71918)"><circle
         style="fill:#d4aa00;stroke:none;stroke-width:0.716;stroke-linecap:round;stroke-dasharray:none;stroke-opacity:1"
         id="circle1320"
         cx="210.99541"
         cy="97.644684"
         r="1.3643746"
         transform="rotate(-9.5184918)" /><text
         xml:space="preserve"
         style="font-style:normal;font-variant:normal;font-weight:normal;font-stretch:normal;font-size:1.93601px;line-height:1.1;font-family:Krungthep;-inkscape-font-specification:'Krungthep, Normal';font-variant-ligatures:normal;font-variant-caps:normal;font-variant-numeric:oldstyle-nums;text-align:center;letter-spacing:-0.77392px;word-spacing:0.794247px;writing-mode:lr-tb;direction:ltr;text-anchor:middle;fill:#000000;stroke:none;stroke-width:0.392933;stroke-linecap:round;stroke-dasharray:none;stroke-opacity:1"
         x="211.04257"
         y="98.329231"
         id="text1321"
         transform="rotate(-9.5184918)"><tspan
           sodipodi:role="line"
           id="tspan1334"
           x="210.65561"
           y="98.329231">4</tspan></text></g><g
       id="g1527"
       transform="rotate(8,48.660706,-525.38418)"><circle
         style="fill:#d4aa00;stroke:none;stroke-width:0.716;stroke-linecap:round;stroke-dasharray:none;stroke-opacity:1"
         id="circle1321"
         cx="210.99541"
         cy="118.45139"
         r="1.3643746"
         transform="rotate(-9.5184918)" /><text
         xml:space="preserve"
         style="font-style:normal;font-variant:normal;font-weight:normal;font-stretch:normal;font-size:1.93601px;line-height:1.1;font-family:Krungthep;-inkscape-font-specification:'Krungthep, Normal';font-variant-ligatures:normal;font-variant-caps:normal;font-variant-numeric:oldstyle-nums;text-align:center;letter-spacing:-0.77392px;word-spacing:0.794247px;writing-mode:lr-tb;direction:ltr;text-anchor:middle;fill:#000000;stroke:none;stroke-width:0.392933;stroke-linecap:round;stroke-dasharray:none;stroke-opacity:1"
         x="211.04257"
         y="119.13595"
         id="text1322"
         transform="rotate(-9.5184918)"><tspan
           sodipodi:role="line"
           id="tspan1335"
           x="210.65561"
           y="119.13595">5</tspan></text></g><g
       id="g1528"
       transform="rotate(8,27.409696,-523.77432)"><circle
         style="fill:#d4aa00;stroke:none;stroke-width:0.716;stroke-linecap:round;stroke-dasharray:none;stroke-opacity:1"
         id="circle1322"
         cx="194.22008"
         cy="128.05281"
         r="1.3643746"
         transform="rotate(-9.5184918)" /><text
         xml:space="preserve"
         style="font-style:normal;font-variant:normal;font-weight:normal;font-stretch:normal;font-size:1.93601px;line-height:1.1;font-family:Krungthep;-inkscape-font-specification:'Krungthep, Normal';font-variant-ligatures:normal;font-variant-caps:normal;font-variant-numeric:oldstyle-nums;text-align:center;letter-spacing:-0.77392px;word-spacing:0.794247px;writing-mode:lr-tb;direction:ltr;text-anchor:middle;fill:#000000;stroke:none;stroke-width:0.392933;stroke-linecap:round;stroke-dasharray:none;stroke-opacity:1"
         x="194.26724"
         y="128.73737"
         id="text1323"
         transform="rotate(-9.5184918)"><tspan
           sodipodi:role="line"
           id="tspan1336"
           x="193.88028"
           y="128.73737">6</tspan></text></g><g
       id="g1529"
       transform="rotate(8,11.852866,-527.04081)"><circle
         style="fill:#d4aa00;stroke:none;stroke-width:0.716;stroke-linecap:round;stroke-dasharray:none;stroke-opacity:1"
         id="circle1323"
         cx="174.03351"
         cy="119.47468"
         r="1.3643746"
         transform="rotate(-9.5184918)" /><text
         xml:space="preserve"
         style="font-style:normal;font-variant:normal;font-weight:normal;font-stretch:normal;font-size:1.93601px;line-height:1.1;font-family:Krungthep;-inkscape-font-specification:'Krungthep, Normal';font-variant-ligatures:normal;font-variant-caps:normal;font-variant-numeric:oldstyle-nums;text-align:center;letter-spacing:-0.77392px;word-spacing:0.794247px;writing-mode:lr-tb;direction:ltr;text-anchor:middle;fill:#000000;stroke:none;stroke-width:0.392933;stroke-linecap:round;stroke-dasharray:none;stroke-opacity:1"
         x="174.08069"
         y="120.15923"
         id="text1324"
         transform="rotate(-9.5184918)"><tspan
           sodipodi:role="line"
           id="tspan1337"
           x="173.69373"
           y="120.15923">7</tspan></text></g><g
       id="g1530"
       transform="rotate(8,-10.941034,-521.96215)"><circle
         style="fill:#d4aa00;stroke:none;stroke-width:0.716;stroke-linecap:round;stroke-dasharray:none;stroke-opacity:1"
         id="circle1324"
         cx="157.43034"
         cy="128.82028"
         r="1.3643746"
         transform="rotate(-9.5184918)" /><text
         xml:space="preserve"
         style="font-style:normal;font-variant:normal;font-weight:normal;font-stretch:normal;font-size:1.93601px;line-height:1.1;font-family:Krungthep;-inkscape-font-specification:'Krungthep, Normal';font-variant-ligatures:normal;font-variant-caps:normal;font-variant-numeric:oldstyle-nums;text-align:center;letter-spacing:-0.77392px;word-spacing:0.794247px;writing-mode:lr-tb;direction:ltr;text-anchor:middle;fill:#000000;stroke:none;stroke-width:0.392933;stroke-linecap:round;stroke-dasharray:none;stroke-opacity:1"
         x="157.47751"
         y="129.50482"
         id="text1325"
         transform="rotate(-9.5184918)"><tspan
           sodipodi:role="line"
           id="tspan1338"
           x="157.09055"
           y="129.50482">8</tspan></text></g><g
       id="g1531"
       transform="rotate(8,-28.497654,-527.95827)"><circle
         style="fill:#d4aa00;stroke:none;stroke-width:0.716;stroke-linecap:round;stroke-dasharray:none;stroke-opacity:1"
         id="circle1325"
         cx="138.35762"
         cy="119.47468"
         r="1.3643746"
         transform="rotate(-9.5184918)" /><text
         xml:space="preserve"
         style="font-style:normal;font-variant:normal;font-weight:normal;font-stretch:normal;font-size:1.93601px;line-height:1.1;font-family:Krungthep;-inkscape-font-specification:'Krungthep, Normal';font-variant-ligatures:normal;font-variant-caps:normal;font-variant-numeric:oldstyle-nums;text-align:center;letter-spacing:-0.77392px;word-spacing:0.794247px;writing-mode:lr-tb;direction:ltr;text-anchor:middle;fill:#000000;stroke:none;stroke-width:0.392933;stroke-linecap:round;stroke-dasharray:none;stroke-opacity:1"
         x="138.40479"
         y="120.15923"
         id="text1326"
         transform="rotate(-9.5184918)"><tspan
           sodipodi:role="line"
           id="tspan1339"
           x="138.01782"
           y="120.15923">9</tspan></text></g><g
       id="g1532"
       transform="rotate(8,-28.676694,-550.34488)"><circle
         style="fill:#d4aa00;stroke:none;stroke-width:0.716;stroke-linecap:round;stroke-dasharray:none;stroke-opacity:1"
         id="circle1326"
         cx="137.20149"
         cy="97.985779"
         r="1.3643746"
         transform="rotate(-9.5184918)" /><text
         xml:space="preserve"
         style="font-style:normal;font-variant:normal;font-weight:normal;font-stretch:normal;font-size:1.93601px;line-height:1.1;font-family:Krungthep;-inkscape-font-specification:'Krungthep, Normal';font-variant-ligatures:normal;font-variant-caps:normal;font-variant-numeric:oldstyle-nums;text-align:center;letter-spacing:-0.492125px;word-spacing:0.794247px;writing-mode:lr-tb;direction:ltr;text-anchor:middle;fill:#000000;stroke:none;stroke-width:0.392933;stroke-linecap:round;stroke-dasharray:none;stroke-opacity:1"
         x="137.16617"
         y="98.747177"
         id="text1327"
         transform="rotate(-9.5184918)"><tspan
           sodipodi:role="line"
           id="tspan1340"
           x="136.9201"
           y="98.747177">10</tspan></text></g><g
       id="g1533"
       transform="rotate(8,-8.9965144,-565.26958)"><circle
         style="fill:#d4aa00;stroke:none;stroke-width:0.716;stroke-linecap:round;stroke-dasharray:none;stroke-opacity:1"
         id="circle1327"
         cx="156.38408"
         cy="87.573013"
         r="1.3643746"
         transform="rotate(-9.5184918)" /><text
         xml:space="preserve"
         style="font-style:normal;font-variant:normal;font-weight:normal;font-stretch:normal;font-size:1.93601px;line-height:1.1;font-family:Krungthep;-inkscape-font-specification:'Krungthep, Normal';font-variant-ligatures:normal;font-variant-caps:normal;font-variant-numeric:oldstyle-nums;text-align:center;letter-spacing:-0.624417px;word-spacing:0.794247px;writing-mode:lr-tb;direction:ltr;text-anchor:middle;fill:#000000;stroke:none;stroke-width:0.392933;stroke-linecap:round;stroke-dasharray:none;stroke-opacity:1"
         x="156.43124"
         y="88.257561"
         id="text1328"
         transform="rotate(-9.5184918)"><tspan
           sodipodi:role="line"
           id="tspan1328"
           style="font-style:normal;font-variant:normal;font-weight:normal;font-stretch:normal;font-size:1.93601px;font-family:Krungthep;-inkscape-font-specification:'Krungthep, Normal';font-variant-ligatures:normal;font-variant-caps:normal;font-variant-numeric:oldstyle-nums;letter-spacing:-0.624417px;fill:#000000;stroke-width:0.392933"
           x="156.11903"
           y="88.257561">11</tspan></text></g><g
       id="g1535"
       transform="rotate(8,11.197866,-556.88383)"><circle
         style="fill:#d4aa00;stroke:none;stroke-width:0.716;stroke-linecap:round;stroke-dasharray:none;stroke-opacity:1"
         id="circle1328"
         cx="175.27756"
         cy="97.189896"
         r="1.3643746"
         transform="rotate(-9.5184918)" /><text
         xml:space="preserve"
         style="font-style:normal;font-variant:normal;font-weight:normal;font-stretch:normal;font-size:1.93601px;line-height:1.1;font-family:Krungthep;-inkscape-font-specification:'Krungthep, Normal';font-variant-ligatures:normal;font-variant-caps:normal;font-variant-numeric:oldstyle-nums;text-align:center;letter-spacing:-0.433917px;word-spacing:0.794247px;writing-mode:lr-tb;direction:ltr;text-anchor:middle;fill:#000000;stroke:none;stroke-width:0.392933;stroke-linecap:round;stroke-dasharray:none;stroke-opacity:1"
         x="175.16393"
         y="97.954842"
         id="text1329"
         transform="rotate(-9.5184918)"><tspan
           sodipodi:role="line"
           id="tspan1329"
           style="font-style:normal;font-variant:normal;font-weight:normal;font-stretch:normal;font-size:1.93601px;font-family:Krungthep;-inkscape-font-specification:'Krungthep, Normal';font-variant-ligatures:normal;font-variant-caps:normal;font-variant-numeric:oldstyle-nums;letter-spacing:-0.433917px;fill:#000000;stroke-width:0.392933"
           x="174.94696"
           y="97.954842">13</tspan></text></g><g
       id="g1538"
       transform="rotate(8,3.8507056,-544.68594)"><circle
         style="fill:#2ad4ff;fill-opacity:1;stroke:none;stroke-width:0.716;stroke-linecap:round;stroke-dasharray:none;stroke-opacity:1"
         id="circle1329"
         cx="157.08925"
         cy="108.67338"
         r="1.3643746"
         transform="rotate(-9.5184918)" /><text
         xml:space="preserve"
         style="font-style:normal;font-variant:normal;font-weight:normal;font-stretch:normal;font-size:1.93601px;line-height:1.1;font-family:Krungthep;-inkscape-font-specification:'Krungthep, Normal';font-variant-ligatures:normal;font-variant-caps:normal;font-variant-numeric:oldstyle-nums;text-align:center;letter-spacing:-0.77392px;word-spacing:0.794247px;writing-mode:lr-tb;direction:ltr;text-anchor:middle;fill:#000000;stroke:none;stroke-width:0.392933;stroke-linecap:round;stroke-dasharray:none;stroke-opacity:1"
         x="157.13641"
         y="109.35793"
         id="text1330"
         transform="rotate(-9.5184918)"><tspan
           sodipodi:role="line"
           id="tspan1330"
           style="font-style:normal;font-variant:normal;font-weight:normal;font-stretch:normal;font-size:1.93601px;font-family:Krungthep;-inkscape-font-specification:'Krungthep, Normal';font-variant-ligatures:normal;font-variant-caps:normal;font-variant-numeric:oldstyle-nums;fill:#000000;stroke-width:0.392933"
           x="156.74945"
           y="109.35793">B</tspan></text></g><g
       id="g1536"
       transform="rotate(8,39.601506,-551.48744)"><circle
         style="fill:#2ad4ff;fill-opacity:1;stroke:none;stroke-width:0.716;stroke-linecap:round;stroke-dasharray:none;stroke-opacity:1"
         id="circle1330"
         cx="193.47258"
         cy="107.87749"
         r="1.3643746"
         transform="rotate(-9.5184918)" /><text
         xml:space="preserve"
         style="font-style:normal;font-variant:normal;font-weight:normal;font-stretch:normal;font-size:1.93601px;line-height:1.1;font-family:Krungthep;-inkscape-font-specification:'Krungthep, Normal';font-variant-ligatures:normal;font-variant-caps:normal;font-variant-numeric:oldstyle-nums;text-align:center;letter-spacing:-0.77392px;word-spacing:0.794247px;writing-mode:lr-tb;direction:ltr;text-anchor:middle;fill:#000000;stroke:none;stroke-width:0.392933;stroke-linecap:round;stroke-dasharray:none;stroke-opacity:1"
         x="193.51974"
         y="108.56205"
         id="text1331"
         transform="rotate(-9.5184918)"><tspan
           sodipodi:role="line"
           id="tspan1331"
           style="font-style:normal;font-variant:normal;font-weight:normal;font-stretch:normal;font-size:1.93601px;font-family:Krungthep;-inkscape-font-specification:'Krungthep, Normal';font-variant-ligatures:normal;font-variant-caps:normal;font-variant-numeric:oldstyle-nums;fill:#000000;stroke-width:0.392933"
           x="193.13278"
           y="108.56205">C</tspan></text></g><path
       sodipodi:type="star"
       style="fill:#d40000;fill-opacity:1;stroke:#ffffff;stroke-width:0.716;stroke-linecap:round;stroke-dasharray:none;stroke-opacity:1"
       id="path1538"
       inkscape:flatsided="true"
       sodipodi:sides="3"
       sodipodi:cx="37.770924"
       sodipodi:cy="31.374722"
       sodipodi:r1="4.1744318"
       sodipodi:r2="2.0872159"
       sodipodi:arg1="0.50298099"
       sodipodi:arg2="1.5501785"
       inkscape:rounded="0"
       inkscape:randomized="0"
       d="m 41.42835,33.386962 -7.228791,0.149063 3.485303,-6.334848 z"
       inkscape:transform-center-x="-0.01241627"
       inkscape:transform-center-y="-0.16934514"
       transform="matrix(0.53059967,-0.0034352,-0.0034352,0.16552534,118.10089,37.80142)"
       inkscape:export-filename="top-marker.svg"
       inkscape:export-xdpi="96"
       inkscape:export-ydpi="96" /></g></svg>
