<?xml version="1.0" encoding="UTF-8"?>
<svg xmlns="http://www.w3.org/2000/svg" viewBox="0 0 62 62" width="62" height="62">
  <defs>
    <clipPath id="left-half">
      <rect x="0" y="0" width="31" height="62"/>
    </clipPath>
    <clipPath id="right-half">
      <rect x="31" y="0" width="31" height="62"/>
    </clipPath>
  </defs>
  
  <!-- Left half: Skyhawks (white background, black icon) -->
  <g clip-path="url(#left-half)">
    <circle cx="31" cy="31" r="30" fill="#FEFEFE" stroke="#000" stroke-width="1"/>
    <g fill="#000">
      <polygon points="48.58,40.37 42.66,40.29 36.73,40.22 33.7,35.12 30.67,30.03 36.59,30.1 42.52,30.18 45.55,35.27"/>
      <polygon points="14.34,21.02 19.03,29.79 25.01,37.42 30.35,30.03 33.88,22.06 23.84,20.67"/>
      <path d="M54.41 18.48l-14.98 -0.36 -5.25 4.37c0,0 20.04,-4.01 20.23,-4z"/>
      <path d="M37.82 14.48l-11.88 1.62 -3.59 4.12c0,0 15.32,-5.72 15.46,-5.74z"/>
      <path d="M45.6 16.4l-13.48 0.3 -4.54 4.14c0,0 17.85,-4.44 18.02,-4.44z"/>
      <path d="M31.15 13.13l-10.07 2.94 -2.57 4.03c0,0 12.51,-6.93 12.64,-6.96z"/>
      <path d="M25.24 11.97l-7.72 4.6 -1.27 3.89c0,0 8.9,-8.44 9,-8.49z"/>
      <path d="M19.58 11.4l-4.37 6.09 0.33 3.4c0,0 3.98,-9.41 4.04,-9.48z"/>
      <path d="M32.16 57.02l-7.8 -12.79 1.16 -6.73c0,0 6.55,19.36 6.65,19.52z"/>
      <path d="M20.4 44.65l-4.53 -11.09 1.77 -5.17c0,0 2.7,16.12 2.76,16.26z"/>
      <path d="M25.95 50.43l-6.48 -11.82 1.32 -6c0,0 5.08,17.68 5.16,17.82z"/>
      <path d="M15.89 39.55l-2.49 -10.19 2.2 -4.24c0,0 0.26,14.3 0.29,14.43z"/>
      <path d="M11.94 35.01l0.12 -8.99 2.74 -3.05c0,0 -2.86,11.92 -2.86,12.04z"/>
      <path d="M8.61 30.4l3.09 -6.83 3.11 -1.42c0,0 -6.16,8.16 -6.19,8.24z"/>
    </g>
  </g>
  
  <!-- Right half: Psiclones (black background, white icon) -->
  <g clip-path="url(#right-half)">
    <circle cx="31" cy="31" r="30" fill="#000"/>
    <g fill="#FEFEFE">
      <path d="M31 13.1c-9.7,0 -17.61,7.03 -17.61,15.65 0,8.62 7.91,15.65 17.61,15.65 9.7,0 17.61,-7.03 17.61,-15.65 0,-8.62 -7.91,-15.65 -17.61,-15.65zm0 -1.98c-10.93,0 -19.84,7.92 -19.84,17.63 0,9.71 8.91,17.63 19.84,17.63 10.93,0 19.84,-7.92 19.84,-17.63 0,-9.71 -8.91,-17.63 -19.84,-17.63z"/>
      <path d="M28.33 17.8c-6.79,0 -12.33,4.92 -12.33,10.96 0,6.03 5.54,10.96 12.33,10.96 6.79,0 12.33,-4.92 12.33,-10.96 0,-6.03 -5.54,-10.96 -12.33,-10.96zm0 -1.38c-7.65,0 -13.88,5.54 -13.88,12.34 0,6.8 6.24,12.34 13.88,12.34 7.65,0 13.88,-5.54 13.88,-12.34 0,-6.8 -6.24,-12.34 -13.88,-12.34z"/>
      <path d="M31.93 22.44c-3.91,0 -7.11,2.84 -7.11,6.32 0,3.48 3.19,6.32 7.11,6.32 3.91,0 7.11,-2.84 7.11,-6.32 0,-3.48 -3.19,-6.32 -7.11,-6.32zm0 -0.8c-4.41,0 -8,3.2 -8,7.11 0,3.92 3.6,7.11 8,7.11 4.41,0 8,-3.2 8,-7.11 0,-3.92 -3.6,-7.11 -8,-7.11z"/>
      <ellipse cx="28.24" cy="28.83" rx="2.51" ry="2.66"/>
    </g>
  </g>
  
  <!-- Vertical divider line -->
  <line x1="31" y1="1" x2="31" y2="61" stroke="#666" stroke-width="1"/>
</svg>
