<?xml version="1.0" encoding="UTF-8"?>
<!DOCTYPE svg PUBLIC "-//W3C//DTD SVG 1.1//EN" "http://www.w3.org/Graphics/SVG/1.1/DTD/svg11.dtd">
<!-- Creator: CorelDRAW -->
<svg xmlns="http://www.w3.org/2000/svg" xml:space="preserve" width="12.7mm" height="12.7001mm" version="1.1" style="shape-rendering:geometricPrecision; text-rendering:geometricPrecision; image-rendering:optimizeQuality; fill-rule:evenodd; clip-rule:evenodd"
viewBox="0 0 57.39 57.39"
 xmlns:xlink="http://www.w3.org/1999/xlink"
 xmlns:xodm="http://www.corel.com/coreldraw/odm/2003">
 <defs>
  <style type="text/css">
   <![CDATA[
    .fil2 {fill:#FEFEFE}
    .fil0 {fill:#FEFEFE}
    .fil1 {fill:black}
   ]]>
  </style>
 </defs>
 <g id="Layer_x0020_1">
  <metadata id="CorelCorpID_0Corel-Layer"/>
  <g id="_1895973699040">
   <circle class="fil0" cx="28.69" cy="28.69" r="28.69"/>
   <circle class="fil1" cx="28.69" cy="28.69" r="27.16"/>
   <g>
    <g>
     <path class="fil2" d="M28 13.1c-9.7,0 -17.61,7.03 -17.61,15.65 0,8.62 7.91,15.65 17.61,15.65 9.7,0 17.61,-7.03 17.61,-15.65 0,-8.62 -7.91,-15.65 -17.61,-15.65zm0 -1.98c-10.93,0 -19.84,7.92 -19.84,17.63 0,9.71 8.91,17.63 19.84,17.63 10.93,0 19.84,-7.92 19.84,-17.63 0,-9.71 -8.91,-17.63 -19.84,-17.63z"/>
     <path class="fil2" d="M25.33 17.8c-6.79,0 -12.33,4.92 -12.33,10.96 0,6.03 5.54,10.96 12.33,10.96 6.79,0 12.33,-4.92 12.33,-10.96 0,-6.03 -5.54,-10.96 -12.33,-10.96zm0 -1.38c-7.65,0 -13.88,5.54 -13.88,12.34 0,6.8 6.24,12.34 13.88,12.34 7.65,0 13.88,-5.54 13.88,-12.34 0,-6.8 -6.24,-12.34 -13.88,-12.34z"/>
     <path class="fil2" d="M28.93 22.44c-3.91,0 -7.11,2.84 -7.11,6.32 0,3.48 3.19,6.32 7.11,6.32 3.91,0 7.11,-2.84 7.11,-6.32 0,-3.48 -3.19,-6.32 -7.11,-6.32zm0 -0.8c-4.41,0 -8,3.2 -8,7.11 0,3.92 3.6,7.11 8,7.11 4.41,0 8,-3.2 8,-7.11 0,-3.92 -3.6,-7.11 -8,-7.11z"/>
    </g>
    <ellipse class="fil2" cx="25.24" cy="28.83" rx="2.51" ry="2.66"/>
   </g>
  </g>
 </g>
</svg>
