<?xml version="1.0" encoding="UTF-8"?>
<!DOCTYPE svg PUBLIC "-//W3C//DTD SVG 1.1//EN" "http://www.w3.org/Graphics/SVG/1.1/DTD/svg11.dtd">
<!-- Creator: CorelDRAW -->
<svg xmlns="http://www.w3.org/2000/svg" xml:space="preserve" width="12.8764mm" height="12.8765mm" version="1.1" style="shape-rendering:geometricPrecision; text-rendering:geometricPrecision; image-rendering:optimizeQuality; fill-rule:evenodd; clip-rule:evenodd"
viewBox="0 0 61.8 61.8"
 xmlns:xlink="http://www.w3.org/1999/xlink"
 xmlns:xodm="http://www.corel.com/coreldraw/odm/2003">
 <defs>
  <style type="text/css">
   <![CDATA[
    .str0 {stroke:black;stroke-width:0.85;stroke-miterlimit:2.61313}
    .fil0 {fill:#FEFEFE}
    .fil1 {fill:black}
   ]]>
  </style>
 </defs>
 <g id="Layer_x0020_1">
  <metadata id="CorelCorpID_0Corel-Layer"/>
  <g id="_1895973701392">
   <circle class="fil0 str0" cx="30.9" cy="30.9" r="30.48"/>
   <g>
    <polygon class="fil1" points="48.58,40.37 42.66,40.29 36.73,40.22 33.7,35.12 30.67,30.03 36.59,30.1 42.52,30.18 45.55,35.27 "/>
    <polygon class="fil1" points="14.34,21.02 19.03,29.79 25.01,37.42 30.35,30.03 33.88,22.06 23.84,20.67 "/>
    <path class="fil1" d="M54.41 18.48l-14.98 -0.36 -5.25 4.37c0,0 20.04,-4.01 20.23,-4z"/>
    <path class="fil1" d="M37.82 14.48l-11.88 1.62 -3.59 4.12c0,0 15.32,-5.72 15.46,-5.74z"/>
    <path class="fil1" d="M45.6 16.4l-13.48 0.3 -4.54 4.14c0,0 17.85,-4.44 18.02,-4.44z"/>
    <path class="fil1" d="M31.15 13.13l-10.07 2.94 -2.57 4.03c0,0 12.51,-6.93 12.64,-6.96z"/>
    <path class="fil1" d="M25.24 11.97l-7.72 4.6 -1.27 3.89c0,0 8.9,-8.44 9,-8.49z"/>
    <path class="fil1" d="M19.58 11.4l-4.37 6.09 0.33 3.4c0,0 3.98,-9.41 4.04,-9.48z"/>
    <path class="fil1" d="M32.16 57.02l-7.8 -12.79 1.16 -6.73c0,0 6.55,19.36 6.65,19.52z"/>
    <path class="fil1" d="M20.4 44.65l-4.53 -11.09 1.77 -5.17c0,0 2.7,16.12 2.76,16.26z"/>
    <path class="fil1" d="M25.95 50.43l-6.48 -11.82 1.32 -6c0,0 5.08,17.68 5.16,17.82z"/>
    <path class="fil1" d="M15.89 39.55l-2.49 -10.19 2.2 -4.24c0,0 0.26,14.3 0.29,14.43z"/>
    <path class="fil1" d="M11.94 35.01l0.12 -8.99 2.74 -3.05c0,0 -2.86,11.92 -2.86,12.04z"/>
    <path class="fil1" d="M8.61 30.4l3.09 -6.83 3.11 -1.42c0,0 -6.16,8.16 -6.19,8.24z"/>
   </g>
  </g>
 </g>
</svg>
